<svg xmlns="http://www.w3.org/2000/svg" id="svg28" width="96" height="96"><style id="style2">.a{fill:#000}</style><defs id="defs16"><clipPath id="clipPath6"><path id="path4" d="M473.883 47.633h56.691v60.515h-56.691zm0 0"/></clipPath><clipPath id="clipPath10"><path id="path8" d="M474 102h56.574v6H474zm0 0"/></clipPath><clipPath id="clipPath14"><path id="path12" d="M474 102h56.574v6H474zm0 0"/></clipPath></defs><path id="path18" style="block-progression:tb;isolation:auto;line-height:normal;mix-blend-mode:normal;text-align:start;text-decoration-color:#000;text-decoration-line:none;text-decoration-style:solid;text-indent:0;text-transform:none" d="M42.163 4.197c-3.444-.037-6.72.601-9.373 1.995-3.569 1.873-6.802 5.417-9.32 9.57-5.558 3.621-10.026 9.024-11.072 14.473-.567 2.943-.29 6.318.577 9.73h3.455c.04-.19.075-.382.124-.568.584-2.211 1.568-4.143 2.746-5.88.157.935.161 1.913.48 2.798a12.366 12.366 0 0 0 2.105 3.65h2.331a11.581 11.581 0 0 1-2.693-4.28c-.45-1.246-.587-2.633-.68-4.03.34-.356.576-.836.95-1.146 2.537-2.092 5.854-3.156 10.242-2.493l1.426.215-.398-1.386c-1.157-4.032-.55-7.356 1.163-10.147.69-1.122 1.681-2.09 2.707-3.03.496.045 1.025-.071 1.507.03 3.217.677 6.118 2.605 8.338 6.447l.721 1.248.836-1.175c2.43-3.42 5.406-5.02 8.656-5.423 1.305-.161 2.68.01 4.051.225.277.417.698.76.92 1.202 1.48 2.937 1.785 6.409.168 10.54l-.524 1.338 1.433-.075c4.189-.219 7.292 1.124 9.625 3.421.941.926 1.662 2.111 2.348 3.325-.149.449-.149.966-.344 1.39a11.485 11.485 0 0 1-2.81 3.804h2.412a12.39 12.39 0 0 0 1.864-2.744c.35.902.719 1.792.991 2.744h1.915a23.562 23.562 0 0 0-2.057-5.576c.736-2.828.944-5.83.353-8.872-.018-.09-.066-.175-.085-.266 1.991 2.477 3.575 5.084 4.23 7.544.56 2.1.504 4.584.007 7.17h1.96c.45-2.68.448-5.303-.176-7.646-1.04-3.908-3.798-7.859-7.308-11.242-2.302-6.215-6.578-11.758-11.652-13.985-3.707-1.626-8.518-1.933-13.357-1.297-2.395-.786-4.853-1.38-7.305-1.54a27.254 27.254 0 0 0-1.487-.058zm-.016 1.91c.458.005.919.025 1.384.055.962.062 1.933.318 2.906.483-1.708.469-3.404 1.006-4.979 1.74a23.483 23.483 0 0 0-5.336 3.445c-2.894-.076-5.839.382-8.647 1.621-.066.029-.122.08-.188.11 1.96-2.458 4.129-4.555 6.362-5.727 2.288-1.202 5.292-1.766 8.498-1.727zm12.868 1.28c3.185-.014 6.218.375 8.553 1.4 3.413 1.497 6.598 5.073 8.924 9.29-1.438-1.048-2.924-2.04-4.488-2.817a23.47 23.47 0 0 0-6.034-2.022c-1.746-2.304-3.94-4.315-6.657-5.734-.094-.05-.204-.07-.298-.117zm-4.239.337c1.257.425 2.534.822 3.683 1.422 2.02 1.055 3.68 2.436 5.11 3.961-.936-.052-1.881-.265-2.804-.15-3.39.419-6.536 2.26-9.12 5.413-2.312-3.469-5.27-5.6-8.55-6.364 1.01-.685 1.987-1.404 3.146-1.944 2.634-1.227 5.587-1.922 8.535-2.338zm-16.809 5.878c.184.016.367.036.557.02-.628.703-1.387 1.312-1.876 2.108-1.787 2.91-2.313 6.514-1.46 10.5-4.147-.357-7.648.629-10.29 2.708.095-1.21.14-2.414.44-3.65.689-2.843 2-5.602 3.529-8.18 1.1-.703 2.192-1.447 3.36-1.962 1.709-.755 3.455-1.283 5.18-1.542.19-.028.376-.018.56-.002zM63.69 15.67c1.168.362 2.342.68 3.49 1.25 2.606 1.295 4.996 3.17 7.163 5.22.445 1.236.93 2.472 1.175 3.732.44 2.267.387 4.455.073 6.55-.543-.77-.964-1.645-1.628-2.3-2.435-2.396-5.831-3.719-9.907-3.785 1.27-3.976 1.086-7.624-.366-10.667zm-42.384 4.147c-.711 1.646-1.352 3.326-1.766 5.036a23.493 23.493 0 0 0-.643 6.295c-1.869 2.216-3.35 4.806-4.134 7.777-.02.073-.015.154-.034.227-.702-3.072-.989-6.085-.51-8.567.703-3.663 3.487-7.564 7.087-10.768z" font-family="sans-serif" stroke-width="1.264" white-space="normal"/><path id="path20" style="block-progression:tb;isolation:auto;line-height:normal;mix-blend-mode:normal;text-align:start;text-decoration-color:#000;text-decoration-line:none;text-decoration-style:solid;text-indent:0;text-transform:none" d="M43.514 19.082c-2.36.053-4.59.605-6.27 1.683-1.954 1.256-3.55 3.503-4.82 6.035-3.2 2.431-5.667 5.935-6.007 9.23-.127 1.236.046 2.57.403 3.935h.618c-.33-1.364-.485-2.689-.364-3.866.269-2.604 2.278-5.292 4.73-7.559-.512 1.307-1.194 2.555-1.4 3.914a13.777 13.777 0 0 0-.037 3.801 11.933 11.933 0 0 0-1.811 3.71h.687c.32-1.045.787-2.002 1.342-2.88.147.705.245 1.43.543 2.072.13.28.281.547.444.808h.783a7.525 7.525 0 0 1-.625-1.086c-.354-.764-.528-1.625-.657-2.5.212-.272.35-.617.593-.857 1.45-1.425 3.45-2.261 6.16-2.093l.513.035-.183-.481c-.921-2.4-.73-4.499.174-6.307.375-.75.941-1.416 1.541-2.061.348-.004.705-.112 1.047-.071 2.017.243 3.915 1.283 5.473 3.506l.297.424.262-.442c1.301-2.218 3.058-3.376 5.035-3.797.82-.175 1.694-.15 2.572-.083.22.27.529.483.71.777 1.068 1.729 1.438 3.866.673 6.471l-.142.493.506-.071c2.546-.358 4.544.297 6.103 1.584.649.536 1.175 1.24 1.67 1.972-.072.324-.045.682-.156.992-.499 1.393-1.403 2.627-2.824 3.595h.994c1.176-.95 1.997-2.095 2.455-3.376.043-.12.022-.256.06-.377.45.815.857 1.675 1.145 2.617.113.371.194.751.263 1.136h.625a7.523 7.523 0 0 0-.256-1.328 13.787 13.787 0 0 0-1.617-3.456c.311-1.718.284-3.527-.231-5.324-.12-.415-.344-.803-.497-1.212 1.751 1.605 3.132 3.43 3.776 5.206.63 1.741.49 3.9-.076 6.114h.914c.468-2.26.455-4.497-.213-6.341-.793-2.187-2.644-4.243-4.839-6.046-1.663-3.656-4.533-6.833-7.671-7.894-2.207-.746-4.97-.585-7.75.007-1.54-.386-3.116-.643-4.665-.609zm.017.685c.967-.022 1.908.38 2.892.527-1.327.414-2.714.657-3.893 1.337-1.14.658-2.14 1.46-3.007 2.354-1.728.086-3.465.514-5.088 1.406-.376.207-.703.508-1.065.747 1.176-2.056 2.644-3.798 4.23-4.816 1.537-.988 3.664-1.504 5.93-1.555zm9.267.016c1.058.057 2.049.232 2.92.527 2.478.837 4.652 3.386 6.32 6.274-1.155-.781-2.215-1.717-3.487-2.216a13.767 13.767 0 0 0-3.721-.88c-1.145-1.294-2.561-2.388-4.27-3.098-.403-.168-.85-.237-1.272-.374 1.206-.188 2.393-.294 3.51-.233zm-5.045.753c.855.199 1.762.138 2.554.467 1.452.605 2.647 1.494 3.666 2.513-.716-.012-1.439-.078-2.125.068-2.026.433-3.838 1.69-5.203 3.809-1.606-2.113-3.57-3.258-5.65-3.509-.144-.017-.292.04-.437.03.695-.625 1.445-1.219 2.302-1.713 1.473-.85 3.202-1.253 4.893-1.665zm7.773 3.712c.926.154 1.86.37 2.784.733 1.588.623 2.99 1.725 4.37 2.794.373.785.982 1.448 1.216 2.265.439 1.53.484 3.04.313 4.486-.436-.57-.835-1.18-1.378-1.628-1.598-1.32-3.708-1.959-6.218-1.71.65-2.576.317-4.824-.785-6.607-.079-.128-.217-.21-.302-.333zm-16.514.424c-.456.553-.96 1.081-1.275 1.71-.926 1.854-1.073 4.052-.268 6.44-2.654-.062-4.771.759-6.266 2.229-.1.098-.145.242-.24.345-.053-.926-.051-1.875.096-2.846.257-1.694 1.025-3.312 1.768-4.9.68-.535 1.186-1.272 1.926-1.68 1.38-.758 2.826-1.137 4.26-1.298z" font-family="sans-serif" stroke-width=".451" white-space="normal"/><path id="path22" class="a" d="M28.835 55.2v-4.57h-3.698v4.57h-1.156v-9.447h1.156v3.784h3.698v-3.784h1.157v9.446zm4.048-8.29v2.627h2.8v1.094h-2.8v3.406h3.842v1.162h-4.998v-9.446h5.06v1.156zm4.78 3.48c0-1.362.31-2.507.928-3.423.612-.922 1.443-1.38 2.485-1.38 1.179 0 2.078.418 2.702 1.265.624.847.939 2.027.939 3.538 0 1.552-.315 2.771-.94 3.647-.629.882-1.528 1.322-2.701 1.322-1.065 0-1.901-.463-2.508-1.396-.601-.928-.905-2.119-.905-3.573zm1.22 0c0 1.088.189 1.992.572 2.72.384.727.922 1.087 1.62 1.087.79 0 1.392-.332 1.804-1.002.418-.664.624-1.597.624-2.805 0-2.427-.807-3.647-2.427-3.647-.716 0-1.26.327-1.638.98-.372.652-.555 1.545-.555 2.667zm11.862 4.81l-2.261-4.06c-.258 0-.664-.023-1.225-.063V55.2h-1.151v-9.446c.04 0 .338-.017.893-.052.561-.028.962-.046 1.22-.046 2.032 0 3.05.9 3.05 2.708 0 .59-.165 1.128-.491 1.603-.327.476-.716.768-1.168.882l2.456 4.351zm-3.486-8.29v3.074c.28.04.55.063.813.063.692 0 1.196-.126 1.511-.378.32-.246.475-.693.475-1.334 0-.527-.172-.905-.51-1.14-.337-.228-.875-.349-1.608-.349a7.73 7.73 0 0 0-.681.063zm6.83 0v2.627h2.8v1.094h-2.8v3.406h3.841v1.162h-4.992v-9.446h5.055v1.156zm8.272 0v8.29h-1.15v-8.29h-2.697v-1.157h6.664v1.156zm3.99 8.29v-9.447h1.157v9.446zm8.497-9.104l-.39 1.105c-.366-.303-.95-.452-1.74-.452-.744 0-1.345.36-1.792 1.07-.452.716-.67 1.638-.67 2.76 0 1.076.23 1.947.687 2.616.458.67 1.054 1.002 1.786 1.002.79 0 1.403-.315 1.827-.944l.641.99c-.67.744-1.534 1.116-2.593 1.116-1.105 0-1.976-.446-2.611-1.333-.636-.894-.956-2.067-.956-3.521 0-1.409.343-2.582 1.019-3.516.681-.933 1.557-1.396 2.628-1.396.921 0 1.643.166 2.164.503zm6.486 9.103l-.584-1.992h-3.148l-.625 1.992h-1.293l3.435-9.578h.309l3.189 9.578zm-2.118-7.105l-1.311 4.162h2.513zm4.288 7.105v-9.446h1.157v8.284h3.83v1.162zM23.58 62.424c0-1.368.309-2.507.922-3.43.612-.92 1.442-1.379 2.49-1.379 1.174 0 2.072.424 2.702 1.271.624.847.94 2.027.94 3.538 0 1.552-.316 2.765-.946 3.647-.63.876-1.528 1.317-2.696 1.317-1.07 0-1.907-.464-2.508-1.391-.607-.928-.904-2.119-.904-3.573zm1.214 0c0 1.082.188 1.987.572 2.714.384.727.927 1.088 1.626 1.088.784 0 1.391-.332 1.803-.997.413-.67.619-1.603.619-2.805 0-2.433-.808-3.652-2.422-3.652-.721 0-1.265.332-1.637.984-.378.653-.561 1.54-.561 2.668zm16.001 4.804l-1.008-6.069-1.849 6.2h-.286l-1.9-6.2-.985 6.069h-1.1l1.586-9.447h.527l2.015 6.893 1.86-6.893h.522l1.717 9.447zm5.64-3.636v3.636h-1.157V57.78a41.204 41.204 0 0 1 1.586-.063c2.456 0 3.687.916 3.687 2.754 0 2.124-1.088 3.183-3.258 3.183-.132 0-.418-.023-.859-.063zm0-4.649v3.487c.486.046.75.063.772.063 1.437 0 2.153-.63 2.153-1.89 0-1.15-.767-1.723-2.296-1.723-.155 0-.366.018-.63.063zm7.906-1.162h1.156v6.464c0 .578.16 1.053.492 1.425.327.372.762.556 1.3.556.572 0 1.02-.178 1.345-.538.327-.361.493-.854.493-1.472v-6.435h1.156v6.573c0 .95-.269 1.694-.801 2.232-.533.533-1.26.802-2.182.802-.95 0-1.677-.264-2.192-.784-.51-.527-.767-1.277-.767-2.262zm13.224 1.162v8.285H66.41v-8.285h-2.696v-1.162h6.664v1.162zm7.397 0v2.622h2.8v1.1h-2.8v3.4h3.842v1.163h-4.998V57.78h5.06v1.162zm12.344 8.285l-2.256-4.054c-.258 0-.67-.023-1.225-.069v4.123h-1.157V57.78c.04 0 .344-.017.9-.046.554-.034.96-.051 1.213-.051 2.038 0 3.057.904 3.057 2.708 0 .595-.166 1.128-.492 1.603-.332.475-.716.773-1.168.887l2.456 4.346zm-3.481-8.285v3.069c.274.04.544.063.807.063.693 0 1.196-.12 1.511-.372.32-.252.481-.693.481-1.334 0-.527-.172-.91-.51-1.145-.343-.23-.875-.344-1.608-.344-.114 0-.344.018-.681.063zM29.39 70.16L29 71.264c-.372-.304-.95-.453-1.746-.453-.744 0-1.34.355-1.786 1.071-.452.716-.675 1.632-.675 2.76 0 1.076.229 1.946.692 2.616.458.664 1.054 1.002 1.78 1.002.797 0 1.403-.315 1.833-.945l.635.985c-.67.744-1.534 1.116-2.587 1.116-1.111 0-1.976-.44-2.617-1.334-.63-.887-.95-2.06-.95-3.52 0-1.409.338-2.577 1.019-3.51.675-.933 1.551-1.403 2.628-1.403.921 0 1.643.172 2.164.51zm7.442 9.097V69.81h1.157v9.446zm9.813-8.284V73.6h2.794v1.093h-2.794v3.406h3.836v1.157H45.49V69.81h5.055v1.162zm16.22 8.416l-4.375-6.905v6.773h-1.099V69.81h.464l4.26 6.532V69.81h1.098v9.578zm13.052-9.23l-.389 1.106c-.366-.304-.95-.453-1.746-.453-.744 0-1.34.355-1.786 1.071-.453.716-.676 1.632-.676 2.76 0 1.076.23 1.946.693 2.616.458.664 1.053 1.002 1.78 1.002.796 0 1.403-.315 1.832-.945l.642.985c-.676.744-1.54 1.116-2.594 1.116-1.105 0-1.975-.44-2.61-1.334-.636-.887-.957-2.06-.957-3.52 0-1.409.338-2.577 1.02-3.51.675-.933 1.551-1.403 2.627-1.403.922 0 1.643.172 2.164.51zm8.393.814V73.6h2.8v1.093h-2.8v3.406h3.842v1.157h-4.998V69.81h5.06v1.162h-3.904"/><path id="path24" class="a" d="M10.762 42.662C8.689 42.662 7 44.578 7 46.92v31.23c0 2.342 1.69 4.26 3.762 4.26h6.578c2.072 0 3.762-1.918 3.762-4.26V46.92c0-2.342-1.69-4.258-3.762-4.258h-6.578zm-.35 3.09h7.432v1.158h-3.139v8.29h-1.287v-8.29h-3.006v-1.158zm4.465 11.87c1.03 0 1.832.171 2.416.509l-.434 1.1c-.412-.298-1.06-.448-1.947-.448-.83 0-1.494.355-1.998 1.07-.498.71-.75 1.632-.75 2.754 0 1.077.258 1.953.774 2.618.509.67 1.173 1.002 1.986 1.002.887 0 1.568-.316 2.043-.94l.71.984c-.744.745-1.712 1.118-2.886 1.118-1.237 0-2.21-.447-2.914-1.334-.71-.893-1.065-2.068-1.065-3.522 0-1.408.38-2.582 1.135-3.51.756-.933 1.733-1.402 2.93-1.402zm-.475 12.026c1.048 0 1.776.172 2.182.51l-.379 1.123c-.172-.126-.434-.24-.789-.361a3.151 3.151 0 0 0-.979-.172c-.435 0-.785.121-1.037.373-.252.252-.377.572-.377.961a1.473 1.473 0 0 0 .514 1.156c.16.132.494.317.992.563l.772.365c.641.303 1.1.67 1.357 1.094.258.423.389.957.389 1.615 0 .704-.285 1.31-.852 1.803-.572.492-1.334.738-2.285.738-.841 0-1.557-.195-2.146-.59l.468-1.185c.24.177.544.32.899.441.36.114.682.178.969.178.498 0 .903-.137 1.207-.412.303-.28.459-.63.459-1.053 0-.32-.086-.614-.252-.889-.172-.269-.602-.566-1.284-.892l-.761-.356c-.641-.298-1.092-.658-1.35-1.064-.257-.418-.385-.91-.385-1.494 0-.705.252-1.289.75-1.752.498-.464 1.14-.7 1.918-.7z"/><path id="path26" class="a" d="M10.601 88.69c0 .293-.017 1.243-.779 1.243-.675 0-.853-.527-.835-1.277l-.87.338c.057.447.125.888.566 1.311.338.31.676.412 1.06.412 1.436 0 1.74-1.076 1.74-2.295v-4.06H10.6zm5.158-1.362c0-.435-.091-.761-.4-1.007-.27-.212-.699-.292-1.008-.292-.71 0-1.105.206-1.649.503l.327.562c.377-.235.83-.464 1.27-.464.687 0 .687.43.687.607v.572c-.72.006-1.39.132-1.872.487-.389.286-.647.698-.647 1.242 0 .567.447 1.076 1.065 1.076.395 0 .722-.04 1.231-.48.04-.029.223-.224.275-.258l.023.017c.028.2.154.366.223.435.223.252.487.28.853.298v-.601c-.378.017-.378-.252-.378-.475zm-.773 2.13c-.223.223-.612.618-1.099.618-.406 0-.658-.32-.658-.687 0-.773.836-1.128 1.757-1.133zm4.495-2.685c0 .08-.04.092-.075.109-.051-.023-.051-.04-.114-.155-.178-.338-.464-.693-1.14-.693-.761 0-1.39.79-1.39 1.844 0 .452.016.944.251 1.42.212.418.59.79 1.157.79.618 0 .927-.407 1.002-.538.074-.138.085-.155.143-.155l.034.046v.635c0 .2 0 .693-.36.945-.03.017-.287.2-.7.2-.48 0-.612-.16-.732-.309h-.31v.761c.436.12.894.138 1.031.138.521 0 .859-.143.98-.195.56-.235.72-.756.726-.796.029-.086.103-.498.103-.744V86.12h-.606zm-1.105 2.696c-.802 0-.87-1.013-.87-1.293 0-.384 0-1.575.875-1.575.539 0 1.002.435 1.002 1.46 0 1.208-.721 1.408-1.007 1.408zm2.971-4.15h.973v-.796h-.973zm.12 5.21h.756v-4.392h-.756zm5.256-2.52c-.023-1.076-.584-1.975-1.643-1.975-.395 0-1.724.184-1.724 2.422 0 1.38.716 2.187 1.73 2.187.801 0 1.144-.303 1.43-.555l-.434-.407c-.138.126-.384.372-.893.372-.785 0-1.065-.658-1.06-1.637h2.605zm-2.57-.108c.011-.149.016-.447.154-.767.143-.332.43-.55.79-.55.595 0 .882.561.882 1.317zm3.84 2.628h.757V84.27h-.11l-.646.27zm2.337 0h.755V84.27h-.108l-.647.27zm1.906-2.273c0 .755.143 1.35.475 1.763.166.212.487.607 1.248.607 1.088 0 1.758-.95 1.758-2.273 0-.43-.126-1.076-.326-1.46-.23-.43-.63-.864-1.466-.864-.905 0-1.689.698-1.689 2.227zm1.723-1.598a.88.88 0 0 1 .32.058c.201.086.385.269.488.555.103.286.154.75.154 1.042 0 .63-.143 1.655-.95 1.655-.876 0-.996-1.243-.996-1.58 0-.682.154-1.73.984-1.73zm2.714 3.87h.756v-2.97c0-.012.068-.127.332-.47.04-.052.36-.475.755-.475.436 0 .436.463.436.584v3.332h.738v-3.35c0-.64-.143-.835-.32-.95a.954.954 0 0 0-.567-.166c-.447 0-.802.206-1.06.561l-.171.23c-.04.045-.097.114-.143.114-.04 0-.063-.052-.063-.086v-.853l-.693.274zm4.288-5.21h.973v-.795h-.973zm.115 5.21h.755v-4.39h-.755zm5.032-3.2c0-.435-.092-.761-.4-1.007-.27-.212-.7-.292-1.009-.292-.704 0-1.099.206-1.648.504l.332.56c.378-.234.83-.463 1.265-.463.687 0 .687.43.687.607v.572c-.721.006-1.391.132-1.872.487-.384.286-.647.698-.647 1.242a1.07 1.07 0 0 0 1.07 1.076c.396 0 .722-.04 1.226-.48.04-.029.223-.224.275-.258l.028.017c.023.2.149.367.218.435.223.252.486.28.858.298v-.601c-.383.017-.383-.252-.383-.475zm-.773 2.13c-.223.223-.613.618-1.1.618-.4 0-.652-.32-.652-.687 0-.773.83-1.128 1.752-1.133zm2.078 1.07h.756v-2.97c0-.012.069-.127.326-.47.046-.052.36-.475.756-.475.44 0 .44.463.44.584v3.332h.74v-3.35c0-.64-.144-.835-.321-.95a.96.96 0 0 0-.573-.166c-.44 0-.796.206-1.059.561l-.166.23c-.04.045-.103.114-.143.114-.04 0-.069-.052-.069-.086v-.853l-.687.274zm6.99-6.165v4.064c0 .556.052 1.06.396 1.563.429.624 1.127.728 1.43.728.453 0 1.048-.04 1.547-.556.417-.43.543-1.053.543-1.654v-4.145h-.772v3.898c0 .338-.018.808-.184 1.145-.217.401-.658.527-.944.527-1.008 0-1.157-.796-1.157-1.46v-4.11zm5.588 6.166h.756v-2.972c0-.011.069-.126.326-.47.046-.05.367-.474.762-.474.435 0 .435.463.435.584v3.332h.738v-3.35c0-.64-.143-.835-.32-.95a.96.96 0 0 0-.573-.166c-.44 0-.796.206-1.053.561l-.172.23c-.04.045-.097.114-.143.114-.04 0-.069-.052-.069-.086v-.853l-.687.274zm4.288-5.21h.973v-.796h-.973zm.115 5.21h.755v-4.392h-.755zm4.294-4.392l-.647 2.846c-.018.097-.04.194-.058.298-.017.091-.023.251-.057.332-.012.028-.029.068-.063.068h-.057c-.035 0-.052-.04-.058-.057-.028-.069-.034-.2-.051-.286-.023-.12-.052-.275-.069-.344l-.664-2.857h-.79l1.202 4.392h.91l1.134-4.392zm4.614 1.873c-.029-1.077-.59-1.976-1.649-1.976-.395 0-1.723.184-1.723 2.422 0 1.38.715 2.187 1.735 2.187.795 0 1.139-.303 1.425-.555l-.435-.407c-.137.126-.378.372-.893.372-.779 0-1.065-.658-1.06-1.637h2.606zm-2.57-.11c.005-.148.017-.446.148-.766.143-.332.43-.55.79-.55.596 0 .882.561.882 1.317zm3.63 2.629h.778V88.02c.315-.43.738-.784 1.26-.784.096 0 .188.011.28.023v-1.243c-.12.035-.659.252-1.22 1.094-.04.057-.212.343-.257.4h-.098c-.023 0-.04-.045-.04-.097v-1.397l-.704.286zm5.484-4.117c-.527-.326-.865-.343-1.174-.343-.698 0-1.311.446-1.311 1.208 0 .584.303.916 1.11 1.31.71.356.888.465.888.825 0 .36-.269.693-.75.693-.35 0-.601-.114-1.025-.447l-.292.573c.264.166.659.418 1.294.418.842 0 1.449-.544 1.449-1.328 0-.75-.573-1.03-.82-1.151l-.703-.355c-.27-.132-.533-.303-.533-.63 0-.286.195-.578.659-.578.435 0 .664.166.99.4zm1.15-1.093h.98v-.796h-.98zm.12 5.21h.756v-4.391h-.755zm1.638-3.561h.624v2.708c0 .876.807.939 1.008.939.251 0 .63-.092.853-.218v-.664c-.206.109-.487.246-.739.246-.366 0-.366-.315-.366-.395v-2.616h.738v-.481h-.698v-1.678h-.086l-.704.682v.996h-.63zm2.897 4.958c.206.063.303.074.498.074.75 0 1.053-.24 1.46-1.529L89 86.138h-.744l-.601 2.009a10.9 10.9 0 0 0-.252.945l-.052.028c-.034-.028-.074-.177-.12-.326-.023-.097-.143-.521-.172-.624l-.658-2.033h-.796l1.42 4.077c-.286.824-.395 1.11-.784 1.11-.287 0-.395-.16-.435-.223h-.155v.825"/></svg>
