<svg xmlns="http://www.w3.org/2000/svg" viewBox="0 0 96 96" height="96" width="96"><style>.a{fill:#d4d4d4;}</style><defs><clipPath><path d="m473.88281 47.632812 56.69141 0 0 60.515628-56.69141 0zm0 0"/></clipPath><clipPath><path d="m474 102 56.57422 0 0 6L474 108Zm0 0"/></clipPath><clipPath><path d="m474 102 56.57422 0 0 6L474 108Zm0 0"/></clipPath></defs><path d="m42.163369 4.1969829c-3.444806-0.036495-6.721276 0.601475-9.373081 1.9946139-3.568845 1.873101-6.801881 5.4175862-9.320411 9.5700242-5.557515 3.62153-10.025944 9.024539-11.072282 14.472973-0.566696 2.943852-0.288735 6.318345 0.577086 9.730326l3.455652 0c0.03981-0.189547 0.0745-0.381689 0.123662-0.567927 0.583768-2.21132 1.568383-4.143118 2.745741-5.88079 0.156901 0.936216 0.161279 1.914034 0.480907 2.798414 0.476645 1.318834 1.190597 2.538127 2.104534 3.650303l2.331249 0c-1.240334-1.248834-2.118777-2.691036-2.693072-4.28006-0.450307-1.245958-0.587174-2.633243-0.680138-4.030449 0.340581-0.35495 0.575326-0.83567 0.950361-1.145014 2.536196-2.091952 5.853917-3.156401 10.241001-2.493839l1.426687 0.215262-0.398464-1.385467c-1.156844-4.03266-0.549666-7.356845 1.163334-10.147111 0.689055-1.122384 1.68124-2.089922 2.706812-3.029706 0.495745 0.04464 1.025547-0.07152 1.506838 0.02977 3.217129 0.677093 6.118534 2.604643 8.337989 6.446426l0.72136 1.248066 0.835859-1.174785c2.43049-3.420336 5.406448-5.020606 8.656304-5.422783 1.304895-0.161485 2.679152 0.01032 4.051058 0.224422 0.276452 0.417694 0.698076 0.760202 0.920591 1.202264 1.478232 2.936763 1.784076 6.408755 0.167172 10.540996l-0.524416 1.337376 1.433557-0.07557c4.188776-0.218604 7.291606 1.124195 9.624984 3.4213 0.940766 0.92614 1.661286 2.111068 2.347278 3.32512-0.148121 0.448555-0.148429 0.965558-0.343503 1.390047-0.652881 1.420692-1.576713 2.701521-2.809864 3.803734l2.411399 0c0.74808-0.844562 1.379262-1.75737 1.864082-2.743452 0.350037 0.901326 0.718919 1.791944 0.991582 2.743452l1.914462 0c-0.458148-1.981585-1.158002-3.85059-2.056444-5.576219 0.735912-2.827313 0.943964-5.830555 0.352664-8.871566-0.01758-0.09035-0.06621-0.175338-0.08474-0.265644 1.990867 2.476223 3.574732 5.083577 4.229681 7.543351 0.559378 2.100841 0.504304 4.584267 0.0069 7.170075l1.960264 0C83.897873 37.284713 83.895555 34.661777 83.271629 32.318515 82.231113 28.41068 79.474406 24.460206 75.964152 21.07677 73.662033 14.86192 69.38639 9.3187128 64.312492 7.0915738 60.605473 5.4662301 55.794257 5.1592694 50.954763 5.7954182 48.559795 5.0085522 46.102086 4.4144222 43.649576 4.2542299 43.15188 4.2217209 42.655464 4.2021919 42.163348 4.1969789Zm-0.01603 1.9098829c0.458096 0.0055 0.918212 0.02505 1.383177 0.05496 0.962215 0.06189 1.933574 0.318503 2.906045 0.483196-1.707474 0.468927-3.403186 1.006399-4.978519 1.74042-1.976038 0.920729-3.756476 2.0950932-5.335764 3.4442022-2.893798-0.07602-5.839024 0.382247-8.647143 1.621339-0.06584 0.02904-0.1221 0.0803-0.187783 0.109921 1.960327-2.45752 4.128518-4.5552792 6.361697-5.7273582 2.287497-1.201749 5.291621-1.765301 8.49829-1.726681zm12.867664 1.280125c3.184689-0.01369 6.217658 0.375165 8.553253 1.399207 3.412628 1.4979412 6.597849 5.0741452 8.924236 9.2906412-1.438024-1.048275-2.924236-2.039655-4.488456-2.816734-1.956633-0.972023-3.990027-1.630127-6.034223-2.022093-1.745516-2.304201-3.940746-4.3150192-6.657109-5.7342292-0.09363-0.04892-0.203324-0.06889-0.297703-0.116791zm-4.23884 0.336634c1.25644 0.425436 2.53427 0.822265 3.682363 1.422107 2.019589 1.0551692 3.68025 2.4357902 5.111342 3.9617472-0.937296-0.05207-1.882114-0.265386-2.805287-0.151141-3.389722 0.419486-6.535668 2.261576-9.118888 5.413625-2.312194-3.468763-5.270945-5.599264-8.550962-6.363987 1.009616-0.685176 1.987348-1.404131 3.146498-1.944233 2.633658-1.2271452 5.586989-1.9217352 8.534932-2.3381182zM33.96736 13.602125c0.183868 0.01592 0.366817 0.03559 0.556476 0.02061-0.628281 0.702255-1.387053 1.311154-1.875532 2.106825-1.786821 2.910511-2.313056 6.514898-1.461038 10.499777-4.146369-0.356491-7.647003 0.629239-10.289092 2.709101 0.09502-1.209494 0.140261-2.414683 0.439686-3.650303 0.688977-2.843171 1.999246-5.602255 3.528931-8.179977 1.100935-0.703094 2.192185-1.447485 3.359471-1.962554 1.709512-0.75433 3.45575-1.282448 5.180041-1.541188 0.191258-0.0287 0.377189-0.01822 0.561057-0.0024zm29.722264 2.067895c1.1682 0.361905 2.341975 0.680035 3.490002 1.250354 2.606514 1.294874 4.996213 3.17042 7.163206 5.218973 0.445508 1.236974 0.929687 2.47223 1.174784 3.732745 0.440707 2.266532 0.387851 4.455032 0.07328 6.549479-0.542402-0.769123-0.963652-1.64496-1.62821-2.299188-2.434672-2.396824-5.830881-3.718885-9.906659-3.785416 1.269247-3.975892 1.086039-7.624346-0.366404-10.666947zm-42.383825 4.14724c-0.710975 1.645609-1.351315 3.326114-1.765612 5.035771-0.51142 2.110452-0.71009 4.227411-0.643497 6.295284-1.868412 2.215676-3.349029 4.805354-4.133499 7.776933-0.01926 0.07298-0.01568 0.153477-0.03435 0.226713-0.701502-3.072198-0.988472-6.084949-0.510676-8.566993 0.703518-3.663318 3.487942-7.56372 7.087634-10.767708z" style="baseline-shift:baseline;block-progression:tb;color-interpolation-filters:linearRGB;color-interpolation:sRGB;color-rendering:auto;direction:ltr;fill:#d4d4d4;font-family:sans-serif;font-size:medium;image-rendering:auto;isolation:auto;letter-spacing:normal;line-height:normal;mix-blend-mode:normal;shape-rendering:auto;solid-color:#000;solid-opacity:1;stroke-width:1.26398718;text-align:start;text-decoration-color:#000;text-decoration-line:none;text-decoration-style:solid;text-decoration:none;text-indent:0;text-rendering:auto;text-transform:none;white-space:normal;word-spacing:normal"/><path d="m43.514486 19.08216c-2.360375 0.05235-4.590687 0.604406-6.270095 1.683171-1.954114 1.255223-3.549649 3.502884-4.820507 6.034223-3.199156 2.431729-5.666974 5.935118-6.006742 9.2311-0.1273 1.234912 0.04621 2.569295 0.403045 3.934266l0.618307 0c-0.33005-1.363831-0.485431-2.688704-0.364114-3.865566 0.268478-2.604422 2.277483-5.292156 4.728906-7.55938-0.510847 1.30653-1.193144 2.555277-1.399206 3.913656-0.196566 1.295768-0.192005 2.571274-0.03664 3.801446-0.794769 1.10169-1.42187 2.344816-1.811411 3.709844l0.687007 0c0.320456-1.044509 0.787271-2.002161 1.341956-2.880854 0.147244 0.70615 0.245499 1.43093 0.542737 2.072474 0.129528 0.279567 0.281333 0.547033 0.444265 0.80838l0.78319 0c-0.236423-0.345416-0.448819-0.704827-0.625178-1.085473-0.353991-0.764038-0.528092-1.625106-0.657238-2.500709 0.212355-0.272138 0.349619-0.617004 0.593117-0.856471 1.449469-1.425474 3.450903-2.261371 6.160174-2.093084l0.512966 0.03435-0.183202-0.480907c-0.921319-2.400423-0.729258-4.498592 0.174042-6.306735 0.374763-0.750166 0.941263-1.416112 1.541188-2.061025 0.348153-0.0042 0.704606-0.112243 1.046542-0.07099 2.017899 0.243444 3.915495 1.283566 5.473166 3.506031l0.297703 0.423655 0.261064-0.441975c1.301486-2.217245 3.05857-3.375124 5.03577-3.796865 0.819881-0.174884 1.693622-0.148941 2.571701-0.08244 0.220902 0.269853 0.528551 0.482848 0.709908 0.77632 1.068547 1.729126 1.438218 3.866622 0.673268 6.471617l-0.141981 0.492356 0.506095-0.07099c2.546083-0.357978 4.544131 0.297422 6.102923 1.584698 0.648405 0.535466 1.175022 1.239519 1.669431 1.971714-0.07159 0.324279-0.04493 0.682024-0.155723 0.991582-0.498695 1.393331-1.402501 2.627782-2.823603 3.595343l0.993871 0c1.175326-0.949916 1.996545-2.094851 2.45491-3.3755 0.04284-0.119683 0.02224-0.256397 0.05954-0.377854 0.450347 0.815525 0.857268 1.675079 1.145014 2.6175 0.113333 0.371173 0.194193 0.751183 0.263353 1.135854l0.625177 0c-0.05271-0.450307-0.124522-0.896014-0.256483-1.328216-0.383982-1.25762-0.941826-2.410419-1.616759-3.455651 0.311513-1.718429 0.284386-3.526625-0.231293-5.324313-0.11889-0.414452-0.343428-0.803202-0.496936-1.211426 1.751323 1.604996 3.132558 3.42976 3.776256 5.205234 0.630876 1.7415 0.489741 3.900329-0.07557 6.114372l0.913721 0c0.467817-2.259992 0.455242-4.496518-0.212972-6.341086-0.792975-2.187219-2.643721-4.243333-4.838827-6.045672-1.663375-3.655717-4.533642-6.832865-7.671592-7.893725-2.206634-0.746587-4.969165-0.585291-7.749453 0.0069-1.540344-0.385888-3.116502-0.643483-4.664786-0.609148zm0.01603 0.684719c0.967083-0.02201 1.90864 0.379601 2.892304 0.526707-1.32681 0.414703-2.713589 0.65699-3.893047 1.337376-1.140165 0.657718-2.139781 1.460138-3.006806 2.354147-1.727664 0.08605-3.465371 0.513546-5.088439 1.406078-0.375975 0.206748-0.702467 0.507739-1.064864 0.746549 1.175932-2.055258 2.643943-3.797332 4.229681-4.815928 1.538083-0.987985 3.664618-1.503329 5.931171-1.554929zm9.26774 0.01603c1.057748 0.05728 2.048701 0.231984 2.919785 0.526707 2.478369 0.837871 4.652347 3.386486 6.320475 6.274674-1.155631-0.781713-2.215372-1.717607-3.487711-2.216746-1.227769-0.481656-2.479322-0.759838-3.721294-0.879371-1.144555-1.294447-2.560647-2.387751-4.268611-3.098407-0.404338-0.168239-0.851693-0.236947-1.273256-0.373274 1.20649-0.188947 2.393394-0.294076 3.510612-0.233583zm-5.044931 0.753419c0.854957 0.19847 1.761409 0.137638 2.553382 0.467165 1.452085 0.60419 2.64702 1.4937 3.666333 2.51216-0.715726-0.01161-1.43865-0.07773-2.125145 0.0687-2.026017 0.432155-3.838381 1.69011-5.202942 3.808315-1.605461-2.112202-3.569179-3.257348-5.649497-3.508321-0.14476-0.01747-0.291977 0.03962-0.437396 0.02977 0.695099-0.625081 1.444774-1.218739 2.301477-1.712939 1.473154-0.849807 3.202432-1.253657 4.893788-1.664851zm7.772354 3.712134c0.926092 0.153091 1.859952 0.37004 2.784673 0.732809 1.587541 0.622793 2.98981 1.725203 4.369372 2.793834 0.373338 0.784705 0.981795 1.448363 1.216005 2.264837 0.438818 1.529747 0.483847 3.039143 0.313734 4.486164-0.436726-0.570507-0.835408-1.179635-1.378597-1.62821-1.598217-1.319834-3.707834-1.958888-6.217424-1.710651 0.650136-2.574782 0.316589-4.823355-0.78548-6.606728-0.07852-0.127084-0.217075-0.209418-0.302283-0.332055zm-16.513388 0.423656c-0.456757 0.553167-0.961168 1.081359-1.275544 1.71065-0.92586 1.853304-1.073199 4.051002-0.267934 6.439556-2.65362-0.0626-4.770962 0.758386-6.265515 2.228197-0.09983 0.09817-0.145739 0.242771-0.240452 0.345794-0.05286-0.926688-0.05109-1.875778 0.09618-2.846503 0.256958-1.69388 1.025391-3.312136 1.767902-4.900659 0.679337-0.534394 1.185597-1.271489 1.925913-1.678591 1.379731-0.758718 2.826123-1.137631 4.25945-1.298444z" style="baseline-shift:baseline;block-progression:tb;color-interpolation-filters:linearRGB;color-interpolation:sRGB;color-rendering:auto;direction:ltr;fill:#d4d4d4;font-family:sans-serif;font-size:medium;image-rendering:auto;isolation:auto;letter-spacing:normal;line-height:normal;mix-blend-mode:normal;shape-rendering:auto;solid-color:#000;solid-opacity:1;stroke-width:0.45142415;text-align:start;text-decoration-color:#000;text-decoration-line:none;text-decoration-style:solid;text-decoration:none;text-indent:0;text-rendering:auto;text-transform:none;white-space:normal;word-spacing:normal"/><path d="m28.835413 55.19918 0-4.568609-3.698398 0 0 4.568609-1.15646 0 0-9.446374 1.15646 0 0 3.784269 3.698398 0 0-3.784269 1.156459 0 0 9.446374zm4.04761-8.289898 0 2.627793 2.799564 0 0 1.093496-2.799564 0 0 3.406418 3.841529 0 0 1.162191-4.997989 0 0-9.446374 5.060967 0 0 1.156476zm4.780433 3.48084c0-1.362569 0.309157-2.507582 0.927472-3.423593 0.612569-0.921742 1.44271-1.379748 2.484676-1.379748 1.179367 0 2.078201 0.417936 2.702232 1.265238 0.624031 0.847318 0.938904 2.026686 0.938904 3.538103 0 1.551489-0.314873 2.770926-0.938904 3.646867-0.629761 0.881657-1.528595 1.322485-2.702232 1.322485-1.064859 0-1.90073-0.463735-2.507583-1.396909-0.601138-0.927472-0.904565-2.118287-0.904565-3.572443zm1.219438 0c0 1.087752 0.188932 1.992317 0.572514 2.719395 0.383581 0.727093 0.921742 1.087767 1.620196 1.087767 0.790056 0 1.391194-0.33205 1.803398-1.001882 0.417921-0.664115 0.624031-1.597303 0.624031-2.80528 0-2.427428-0.807233-3.646881-2.427429-3.646881-0.715631 0-1.259522 0.326335-1.637373 0.978989-0.372135 0.652669-0.555337 1.545772-0.555337 2.667892zm11.862341 4.809058-2.261389-4.059086c-0.257642 0-0.664116-0.02286-1.225169-0.06302l0 4.122049-1.150744 0 0-9.446358c0.04016 0 0.337781-0.01714 0.893118-0.05159 0.561053-0.02857 0.961811-0.04573 1.219437-0.04573 2.032401 0 3.051459 0.898834 3.051459 2.707963 0 0.589676-0.166025 1.127836-0.492358 1.603018-0.32632 0.475183-0.715632 0.767163-1.167907 0.881657l2.456052 4.351051zm-3.486558-8.289898 0 3.074352c0.28052 0.04002 0.549607 0.06302 0.812963 0.06302 0.692725 0 1.19653-0.125896 1.511419-0.377851 0.320603-0.246179 0.475167-0.692738 0.475167-1.333945 0-0.5267-0.171741-0.90455-0.509521-1.139284-0.337782-0.229003-0.875941-0.349227-1.60875-0.349227-0.114459 0-0.337781 0.02286-0.681278 0.06302zm6.829997 0 0 2.627793 2.799564 0 0 1.093496-2.799564 0 0 3.406418 3.84153 0 0 1.162191-4.99226 0 0-9.446374 5.055237 0 0 1.156476zm8.272736 0 0 8.289898-1.150745 0 0-8.289898-2.696501 0 0-1.156476 6.663972 0 0 1.156476zm3.990362 8.289898 0-9.446374 1.156461 0 0 9.446374zm8.496009-9.102862-0.389312 1.104929c-0.366405-0.303426-0.950365-0.452275-1.74042-0.452275-0.744256 0-1.345393 0.360674-1.791938 1.070589-0.452289 0.715632-0.669846 1.637374-0.669846 2.759479 0 1.07632 0.229004 1.946531 0.687009 2.616362 0.458006 0.669832 1.053412 1.001882 1.786221 1.001882 0.79007 0 1.402655-0.314873 1.826306-0.944635l0.641208 0.990435c-0.669832 0.744256-1.534326 1.11639-2.593454 1.11639-1.104944 0-1.975154-0.446558-2.610632-1.333946-0.635491-0.893103-0.956095-2.06674-0.956095-3.520912 0-1.408369 0.343512-2.582006 1.019073-3.515194 0.681278-0.933188 1.557219-1.39691 2.627794-1.39691 0.921741 0 1.643103 0.166025 2.164086 0.503806zm6.4865 9.102862-0.583961-1.992331-3.14879 0-0.624031 1.992331-1.293862 0 3.435042-9.578045 0.309157 0 3.18886 9.578045zm-2.118271-7.104815-1.311054 4.162119 2.513314 0zm4.288074 7.104815 0-9.446374 1.15646 0 0 8.284183 3.830068 0 0 1.162191zm-59.924287 7.225024c0-1.368285 0.309157-2.507568 0.921727-3.42931 0.612583-0.921741 1.442724-1.379747 2.490406-1.379747 1.173637 0 2.072485 0.423666 2.702232 1.270969 0.62403 0.847318 0.938918 2.026671 0.938918 3.538088 0 1.551503-0.314888 2.76521-0.944634 3.646867-0.629762 0.875941-1.528595 1.316769-2.696516 1.316769-1.07059 0-1.906446-0.463721-2.507569-1.391193-0.606868-0.927458-0.904564-2.118271-0.904564-3.572443zm1.213707 0c0 1.082036 0.188932 1.9866 0.572513 2.713693 0.383582 0.727079 0.927458 1.087752 1.625913 1.087752 0.78434 0 1.391194-0.33205 1.803398-0.996151 0.412204-0.669846 0.618315-1.603019 0.618315-2.805294 0-2.433144-0.807233-3.652583-2.421713-3.652583-0.721348 0-1.265238 0.332051-1.637358 0.984706-0.377866 0.652653-0.561068 1.540041-0.561068 2.667877zm16.001566 4.803341-1.007612-6.068579-1.849199 6.20025-0.286249 0-1.900715-6.20025-0.984719 6.068579-1.099213 0 1.585841-9.446373 0.526714 0 2.015224 6.892989 1.860645-6.892989 0.520983 0 1.717513 9.446373zm5.639198-3.63542 0 3.63542-1.15646 0 0-9.446373c0.875925-0.04573 1.402639-0.06302 1.585841-0.06302 2.456053 0 3.686937 0.916011 3.686937 2.753763 0 2.124002-1.087766 3.183131-3.257554 3.183131-0.131759 0-0.417936-0.02286-0.858764-0.06302zm0-4.648762 0 3.486572c0.486628 0.04573 0.749985 0.06302 0.772878 0.06302 1.436994 0 2.152625-0.629762 2.152625-1.889269 0-1.150744-0.767162-1.723244-2.295743-1.723244-0.154578 0-0.366404 0.01714-0.62976 0.06302zm7.906317-1.162191 1.15646 0 0 6.463607c0 0.578231 0.160309 1.053413 0.492359 1.425547 0.326335 0.372121 0.761432 0.555323 1.299593 0.555323 0.572499 0 1.019058-0.177471 1.345392-0.538146 0.326319-0.360688 0.492344-0.853032 0.492344-1.471347l0-6.434984 1.156476 0 0 6.572385c0 0.950365-0.269088 1.694621-0.801517 2.23278-0.53243 0.53243-1.259507 0.801503-2.18125 0.801503-0.950365 0-1.677442-0.263357-2.192695-0.784326-0.509536-0.526713-0.767162-1.276699-0.767162-2.261403zm13.22491 1.162191 0 8.284182-1.156475 0 0-8.284182-2.696501 0 0-1.162191 6.663986 0 0 1.162191zm7.39678 0 0 2.622092 2.799564 0 0 1.099214-2.799564 0 0 3.400686 3.84153 0 0 1.16219-4.99799 0 0-9.446373 5.060953 0 0 1.162191zm12.343254 8.284182-2.255688-4.053355c-0.257626 0-0.669831-0.02286-1.225154-0.06873l0 4.122049-1.156474 0 0-9.446358c0.04002 0 0.343511-0.01715 0.898848-0.04573 0.555322-0.0343 0.961812-0.05159 1.213707-0.05159 2.038132 0 3.05719 0.904564 3.05719 2.707963 0 0.595406-0.166025 1.127836-0.492359 1.603018-0.332051 0.475169-0.715632 0.772879-1.167906 0.887373l2.456051 4.345336zm-3.480842-8.284182 0 3.068637c0.274803 0.04002 0.543877 0.06302 0.807233 0.06302 0.692725 0 1.19653-0.12018 1.511419-0.37212 0.320603-0.25191 0.480898-0.692739 0.480898-1.333946 0-0.5267-0.171741-0.910281-0.509523-1.145015-0.343511-0.229002-0.87594-0.343496-1.608749-0.343496-0.114459 0-0.343496 0.01714-0.681278 0.06302zM29.390734 70.15878 29.001437 71.263709c-0.372134-0.303426-0.950364-0.452274-1.746151-0.452274-0.744254 0-1.339662 0.354957-1.78622 1.070589-0.452276 0.715631-0.675562 1.631642-0.675562 2.759478 0 1.076321 0.229002 1.946532 0.692739 2.616362 0.458005 0.664101 1.053412 1.001882 1.78049 1.001882 0.795786 0 1.40264-0.314873 1.832021-0.944635l0.635492 0.984719c-0.669831 0.744255-1.534325 1.116375-2.587738 1.116375-1.110659 0-1.975139-0.440828-2.616346-1.333931-0.629762-0.887387-0.950365-2.061024-0.950365-3.520926 0-1.408356 0.33778-2.576277 1.019058-3.509464 0.675561-0.933188 1.551488-1.402641 2.627808-1.402641 0.921741 0 1.643089 0.171757 2.164071 0.509537zm7.442596 9.097131 0-9.446358 1.15646 0 0 9.446358zm9.812763-8.284182 0 2.627807 2.793834 0 0 1.093497-2.793834 0 0 3.406418 3.8358 0 0 1.15646-4.99226 0 0-9.446358 5.055237 0 0 1.162176zm16.219123 8.415853-4.373959-6.904436 0 6.772765-1.099213 0 0-9.446358 0.463736 0 4.25945 6.5323 0-6.5323 1.099214 0 0 9.578029zM75.91837 70.15878 75.529059 71.263709c-0.366405-0.303426-0.950365-0.452274-1.746152-0.452274-0.744255 0-1.339661 0.354957-1.786221 1.070589-0.452274 0.715631-0.675546 1.631642-0.675546 2.759478 0 1.076321 0.229002 1.946532 0.692723 2.616362 0.458006 0.664101 1.053412 1.001882 1.780505 1.001882 0.795787 0 1.402641-0.314873 1.832022-0.944635l0.641208 0.984719c-0.675562 0.744255-1.540042 1.116375-2.593454 1.116375-1.104943 0-1.975154-0.440828-2.610631-1.333931-0.635491-0.887387-0.956096-2.061024-0.956096-3.520926 0-1.408356 0.337782-2.576277 1.019059-3.509464 0.675562-0.933188 1.551503-1.402641 2.627808-1.402641 0.921741 0 1.643104 0.171757 2.164086 0.509537zm8.392947 0.812949 0 2.627807 2.799548 0 0 1.093497-2.799548 0 0 3.406418 3.841514 0 0 1.15646-4.997974 0 0-9.446358 5.060951 0 0 1.162176-3.904491 0" class="a"/><path d="M10.761719 42.662109C8.6892477 42.662109 7 44.578363 7 46.919922L7 78.150391C7 80.491948 8.6892477 82.410156 10.761719 82.410156L17.339844 82.410156C19.412316 82.410156 21.101562 80.491948 21.101562 78.150391L21.101562 46.919922C21.101562 44.578363 19.412316 42.662109 17.339844 42.662109L10.761719 42.662109zM10.412109 45.751953L17.84375 45.751953 17.84375 46.910156 14.705078 46.910156 14.705078 55.199219 13.417969 55.199219 13.417969 46.910156 10.412109 46.910156 10.412109 45.751953zM14.876953 57.621094C15.907458 57.621094 16.709008 57.793079 17.292969 58.130859L16.859375 59.230469C16.447169 58.932759 15.799482 58.783203 14.912109 58.783203 14.081968 58.783203 13.417868 59.137884 12.914062 59.853516 12.415987 60.563417 12.164063 61.485316 12.164062 62.607422 12.164062 63.683742 12.422248 64.560493 12.9375 65.224609 13.447037 65.89444 14.110865 66.226562 14.923828 66.226562 15.811216 66.226562 16.491615 65.91114 16.966797 65.287109L17.677734 66.271484C16.933479 67.015754 15.964667 67.388672 14.791016 67.388672 13.5544 67.388672 12.581138 66.942061 11.876953 66.054688 11.167051 65.161569 10.8125 63.987375 10.8125 62.533203 10.8125 61.124833 11.191549 59.950894 11.947266 59.023438 12.702968 58.090249 13.680408 57.621094 14.876953 57.621094zM14.402344 69.648438C15.450026 69.648438 16.177509 69.820423 16.583984 70.158203L16.205078 71.28125C16.033323 71.155353 15.770959 71.040146 15.416016 70.919922 15.066774 70.805451 14.740926 70.748047 14.4375 70.748047 14.002387 70.748047 13.652288 70.869139 13.400391 71.121094 13.148481 71.372989 13.023438 71.692718 13.023438 72.082031 13.023438 72.32248 13.068558 72.539854 13.160156 72.740234 13.251766 72.934882 13.3768 73.100879 13.537109 73.238281 13.697404 73.369894 14.031207 73.554601 14.529297 73.800781L15.300781 74.166016C15.941988 74.469443 16.400577 74.836101 16.658203 75.259766 16.915829 75.683417 17.046875 76.216615 17.046875 76.875 17.046875 77.579186 16.762082 78.185374 16.195312 78.677734 15.622799 79.170078 14.860521 79.416016 13.910156 79.416016 13.068569 79.416016 12.353349 79.221199 11.763672 78.826172L12.232422 77.640625C12.472871 77.818097 12.775902 77.961807 13.130859 78.082031 13.491548 78.19649 13.81336 78.259766 14.099609 78.259766 14.597685 78.259766 15.003215 78.122533 15.306641 77.847656 15.610069 77.567136 15.765625 77.218573 15.765625 76.794922 15.765625 76.474317 15.679702 76.181053 15.513672 75.90625 15.341916 75.637178 14.911762 75.339991 14.230469 75.013672L13.46875 74.658203C12.827542 74.360493 12.376767 74.000225 12.119141 73.59375 11.861501 73.175815 11.734375 72.683554 11.734375 72.099609 11.734375 71.395424 11.986285 70.811393 12.484375 70.347656 12.98245 69.883935 13.623734 69.648438 14.402344 69.648438z" class="a"/><path d="m10.601084 88.690827c0 0.29198-0.01715 1.242345-0.7786094 1.242345-0.6755617 0-0.8530333-0.526714-0.8358563-1.276699l-0.8702103 0.33778c0.057306 0.446559 0.1258965 0.887388 0.5667835 1.311039 0.3377662 0.309158 0.6755471 0.412205 1.0591285 0.412205 1.436994 0 1.740421-1.076305 1.740421-2.295743l0-4.059071-0.881657 0zm5.158284-1.36257c0-0.435098-0.0916-0.761432-0.400758-1.007612-0.269073-0.211826-0.698455-0.291966-1.007612-0.291966-0.709901 0-1.104929 0.206095-1.64882 0.503806l0.326335 0.561053c0.37785-0.234733 0.83014-0.463736 1.270968-0.463736 0.687009 0 0.687009 0.429382 0.687009 0.606854l0 0.572514c-0.721363 0.0059-1.391194 0.131612-1.872107 0.486629-0.389297 0.28625-0.646923 0.698454-0.646923 1.242345 0 0.566784 0.446544 1.076306 1.064859 1.076306 0.395027 0 0.721362-0.04001 1.230884-0.480899 0.04016-0.02858 0.223287-0.223287 0.274803-0.257626l0.02286 0.01715c0.02858 0.200379 0.154578 0.366404 0.223272 0.435112 0.223287 0.251896 0.486629 0.280534 0.853033 0.297696l0-0.601123c-0.377851 0.01715-0.377851-0.25191-0.377851-0.475182zm-0.772878 2.129732c-0.223287 0.223273-0.612585 0.6183-1.099214 0.6183-0.406488 0-0.658384-0.320603-0.658384-0.687008 0-0.772878 0.835856-1.127836 1.757598-1.133552zm4.494169-2.685055c0 0.08017-0.04001 0.0916-0.07445 0.108749-0.05144-0.02286-0.05144-0.04001-0.114464-0.154578-0.177487-0.337781-0.463736-0.692739-1.139298-0.692739-0.761432 0-1.391193 0.790056-1.391193 1.843468 0 0.45229 0.01715 0.944649 0.25191 1.419817 0.211826 0.417935 0.589676 0.79007 1.15646 0.79007 0.618315 0 0.927457-0.406489 1.001896-0.53816 0.07445-0.137328 0.08589-0.154578 0.143044-0.154578l0.0343 0.04573 0 0.635477c0 0.200379 0 0.692739-0.360674 0.944649-0.02858 0.01715-0.286264 0.200364-0.698469 0.200364-0.480899 0-0.612584-0.160294-0.732809-0.309142l-0.309143 0 0 0.761432c0.435098 0.120181 0.893104 0.137328 1.030505 0.137328 0.520983 0 0.858764-0.14319 0.978989-0.194648 0.561053-0.234734 0.721362-0.755717 0.727078-0.795787 0.02858-0.08589 0.103033-0.49809 0.103033-0.744269l0-3.95601-0.606868 0zm-1.104929 2.696502c-0.801517 0-0.870211-1.013328-0.870211-1.293862 0-0.383581 0-1.574395 0.875927-1.574395 0.53816 0 1.001896 0.435112 1.001896 1.459887 0 1.207991-0.721362 1.40837-1.007612 1.40837zm2.971305-4.150673 0.973257 0 0-0.795786-0.973257 0zm0.12018 5.209816 0.755716 0 0-4.391136-0.755716 0zm5.255616-2.51903c-0.02286-1.07632-0.58396-1.975154-1.643089-1.975154-0.395042 0-1.723258 0.183202-1.723258 2.421713 0 1.379732 0.715646 2.186965 1.728974 2.186965 0.801517 0 1.145014-0.303427 1.431263-0.555322l-0.435097-0.406489c-0.137329 0.125896-0.383582 0.372135-0.893118 0.372135-0.784325 0-1.064859-0.658385-1.059129-1.637374l2.604901 0zM24.15227 87.9008c0.01172-0.148848 0.01715-0.446559 0.154579-0.767163 0.143191-0.33205 0.429382-0.549606 0.790056-0.549606 0.595407 0 0.881671 0.561053 0.881671 1.316769zm3.84153 2.627808 0.755702 0 0-6.257497-0.108749 0-0.646924 0.269073zm2.335828 0 0.755701 0 0-6.257497-0.108748 0-0.646924 0.269073zm1.906446-2.27285c0 0.755702 0.143044 1.351109 0.475182 1.763314 0.166025 0.211825 0.486629 0.606853 1.248061 0.606853 1.087767 0 1.757598-0.95035 1.757598-2.27285 0-0.429382-0.125897-1.076305-0.326335-1.459887-0.229002-0.429382-0.629761-0.864479-1.465617-0.864479-0.904564 0-1.688889 0.698454-1.688889 2.227049zm1.723243-1.597303c0.108749 0 0.217556 0.01715 0.320604 0.05731 0.200379 0.08589 0.383581 0.269072 0.486629 0.555322 0.103033 0.28625 0.154579 0.749986 0.154579 1.041966 0 0.629761-0.143191 1.65455-0.950365 1.65455-0.875927 0-0.996166-1.242345-0.996166-1.580126 0-0.681277 0.154579-1.728974 0.984719-1.728974zm2.713679 3.870153 0.755716 0 0-2.971319c0-0.01172 0.06874-0.125897 0.33205-0.469452 0.04001-0.05159 0.360674-0.475183 0.755702-0.475183 0.435112 0 0.435112 0.463736 0.435112 0.583961l0 3.331993 0.73854 0 0-3.34917c0-0.641208-0.143191-0.835856-0.320604-0.950365-0.16604-0.120181-0.366404-0.166025-0.566784-0.166025-0.446559 0-0.801517 0.20611-1.059143 0.561068l-0.171755 0.229002c-0.04001 0.04573-0.09732 0.114465-0.143045 0.114465-0.04016 0-0.06302-0.05159-0.06302-0.08589l0-0.853033-0.692739 0.274803zm4.288074-5.209815 0.973272 0 0-0.795787-0.973272 0zm0.114465 5.209815 0.755701 0 0-4.391136-0.755701 0zm5.032329-3.200322c0-0.435098-0.0916-0.761432-0.400759-1.007612-0.269072-0.211826-0.698454-0.291965-1.007612-0.291965-0.70417 0-1.099213 0.206095-1.648819 0.503806l0.332065 0.561053c0.377851-0.234734 0.830125-0.463736 1.265238-0.463736 0.687008 0 0.687008 0.429381 0.687008 0.606853l0 0.572514c-0.721362 0.0059-1.391193 0.131613-1.872106 0.486629-0.383567 0.28625-0.646924 0.698455-0.646924 1.242345 0 0.566784 0.446559 1.076306 1.07059 1.076306 0.395028 0 0.721347-0.04001 1.225153-0.480899 0.04016-0.02858 0.223287-0.223286 0.274804-0.257626l0.02858 0.01715c0.02286 0.200379 0.148848 0.366404 0.217542 0.435112 0.223286 0.251896 0.486629 0.280534 0.858764 0.297697l0-0.601123c-0.383582 0.01715-0.383582-0.251911-0.383582-0.475183zm-0.772879 2.129733c-0.223287 0.223272-0.612584 0.6183-1.099213 0.6183-0.400758 0-0.652654-0.320604-0.652654-0.687008 0-0.772879 0.830126-1.127837 1.751867-1.133553zm2.078202 1.070589 0.755701 0 0-2.971319c0-0.01172 0.06874-0.125897 0.326335-0.469452 0.04573-0.05159 0.360673-0.475183 0.755701-0.475183 0.440829 0 0.440829 0.463736 0.440829 0.583961l0 3.331993 0.738539 0 0-3.34917c0-0.641208-0.143191-0.835856-0.320604-0.950365-0.166025-0.120181-0.366404-0.166025-0.572499-0.166025-0.440843 0-0.795787 0.20611-1.059143 0.561068l-0.166026 0.229002c-0.04016 0.04573-0.103032 0.114465-0.14319 0.114465-0.04001 0-0.06874-0.05159-0.06874-0.08589l0-0.853033-0.687008 0.274803zm6.990306-6.165896 0 4.064787c0 0.555337 0.05144 1.059143 0.395028 1.562949 0.429382 0.624031 1.127836 0.727078 1.431263 0.727078 0.452289 0 1.047697-0.04001 1.545772-0.555322 0.417935-0.429382 0.543876-1.053413 0.543876-1.65455l0-4.144942-0.772879 0 0 3.898762c0 0.337781-0.01715 0.807233-0.183202 1.145014-0.217556 0.400758-0.658385 0.526713-0.944634 0.526713-1.007612 0-1.15646-0.795786-1.15646-1.459901l0-4.110588zm5.587666 6.165896 0.755702 0 0-2.971319c0-0.01172 0.06874-0.125897 0.326334-0.469452 0.04573-0.05159 0.366404-0.475183 0.761432-0.475183 0.435113 0 0.435113 0.463736 0.435113 0.583961l0 3.331993 0.738524 0 0-3.34917c0-0.641208-0.143044-0.835856-0.320603-0.950365-0.166026-0.120181-0.366405-0.166025-0.5725-0.166025-0.440828 0-0.795786 0.20611-1.053412 0.561068l-0.171756 0.229002c-0.04001 0.04573-0.09732 0.114465-0.143191 0.114465-0.04001 0-0.06874-0.05159-0.06874-0.08589l0-0.853033-0.687009 0.274803zm4.288074-5.209815 0.973258 0 0-0.795787-0.973258 0zm0.114465 5.209815 0.755716 0 0-4.391136-0.755716 0zm4.293805-4.391136-0.646924 2.845364c-0.01715 0.09732-0.04016 0.194649-0.05731 0.297711-0.01715 0.0916-0.02286 0.251896-0.0573 0.33205-0.01172 0.02858-0.02858 0.06874-0.06302 0.06874l-0.0573 0c-0.0343 0-0.05159-0.04001-0.05731-0.05731-0.02858-0.06874-0.0343-0.200379-0.05159-0.28625-0.02286-0.12018-0.05159-0.274803-0.06874-0.343511l-0.664116-2.856811-0.790055 0 1.20226 4.391137 0.910281 0 1.133567-4.391137zm4.614408 1.872106c-0.02858-1.07632-0.589677-1.975154-1.64882-1.975154-0.395027 0-1.723243 0.183203-1.723243 2.421713 0 1.379733 0.715631 2.186965 1.73469 2.186965 0.795786 0 1.139298-0.303426 1.425547-0.555322l-0.435112-0.406489c-0.137329 0.125896-0.377851 0.372135-0.893103 0.372135-0.77861 0-1.064859-0.658385-1.059144-1.637373l2.604916 0zM70.73135 87.90083c0.0059-0.148849 0.01715-0.446559 0.148863-0.767163 0.143044-0.33205 0.429367-0.549607 0.790055-0.549607 0.595407 0 0.881657 0.561053 0.881657 1.31677zm3.629704 2.627808 0.778609 0 0-2.507584c0.314874-0.429382 0.738525-0.78434 1.259508-0.78434 0.09732 0 0.188933 0.01172 0.280534 0.02286l0-1.242345c-0.120181 0.0343-0.658385 0.25191-1.219438 1.093497-0.04016 0.05731-0.21184 0.343497-0.257641 0.400744l-0.09732 0c-0.02286 0-0.04001-0.04573-0.04001-0.09732l0-1.396924-0.704171 0.286264zm5.484604-4.116333c-0.526699-0.32632-0.86448-0.343497-1.173637-0.343497-0.698455 0-1.311039 0.446559-1.311039 1.207991 0 0.583961 0.303427 0.916011 1.11066 1.311039 0.709916 0.354958 0.887387 0.463736 0.887387 0.82441 0 0.360673-0.269072 0.692738-0.749986 0.692738-0.349227 0-0.601123-0.114464-1.024789-0.446559l-0.291965 0.5725c0.263342 0.166025 0.65837 0.417935 1.293862 0.417935 0.841586 0 1.44844-0.543876 1.44844-1.328216 0-0.749985-0.572514-1.030519-0.818679-1.150744l-0.704186-0.354943c-0.269087-0.131612-0.532429-0.303441-0.532429-0.629761 0-0.28625 0.194649-0.57823 0.65837-0.57823 0.435112 0 0.664115 0.166025 0.99045 0.400744zm1.150744-1.093483 0.978989 0 0-0.795786-0.978989 0zm0.120181 5.209816 0.755716 0 0-4.391137-0.755716 0zm1.637373-3.560996 0.624031 0 0 2.707962c0 0.875927 0.807232 0.938904 1.007612 0.938904 0.251895 0 0.629761-0.0916 0.853033-0.217556l0-0.664101c-0.206095 0.108749-0.486629 0.24618-0.738539 0.24618-0.366405 0-0.366405-0.314888-0.366405-0.395028l0-2.616361 0.73854 0 0-0.480899-0.698455 0 0-1.677457-0.08588 0-0.704171 0.681292 0 0.996165-0.629761 0zm2.896881 4.957905C85.856947 91.988568 85.954264 92 86.148912 92c0.749986 0 1.053413-0.240449 1.459902-1.52858l1.391193-4.333889-0.74427 0-0.601123 2.009508c-0.103033 0.33205-0.154578 0.520983-0.25191 0.944634l-0.05144 0.02858c-0.0343-0.02858-0.07445-0.177472-0.120181-0.326335-0.02286-0.09732-0.143191-0.520968-0.171756-0.62403l-0.658384-2.032401-0.795787 0 1.419817 4.076248c-0.286249 0.82441-0.395028 1.110674-0.784339 1.110674-0.28625 0-0.395028-0.160309-0.435098-0.223287l-0.154579 0 0 0.82441" class="a"/></svg>

